<?xml version="1.0" encoding="UTF-8" standalone="no"?>
<svg xmlns:xlink="http://www.w3.org/1999/xlink" height="17.0px" width="104.5px" xmlns="http://www.w3.org/2000/svg">
  <g transform="matrix(1.0, 0.0, 0.0, 1.0, 7.5, 3.0)">
    <path d="M13.25 -2.9 L13.85 -2.75 14.1 -2.65 20.0 -2.5 20.75 -2.4 21.35 -2.25 21.6 -2.15 25.0 -2.0 25.75 -1.9 26.35 -1.75 26.75 -1.65 32.0 -1.5 32.75 -1.4 33.35 -1.25 33.85 -1.15 40.0 -1.0 40.75 -0.9 41.35 -0.75 41.75 -0.65 52.0 -0.5 52.75 -0.4 53.35 -0.25 53.75 -0.15 56.35 -0.15 56.6 -0.25 57.25 -0.4 58.0 -0.5 63.35 -0.65 63.6 -0.75 64.25 -0.9 65.0 -1.0 87.0 -1.0 87.75 -0.9 88.35 -0.75 88.6 -0.65 90.5 -0.5 91.25 -0.4 91.85 -0.25 92.1 -0.15 93.0 0.0 93.75 0.1 94.6 0.35 95.25 0.75 95.75 1.1 96.1 1.5 96.35 1.85 96.5 2.25 96.75 2.6 96.85 3.0 96.85 3.35 97.0 3.75 97.0 4.1 97.0 4.5 97.0 4.85 97.0 5.25 97.0 5.6 97.0 6.0 97.0 6.35 97.0 6.75 97.0 7.1 97.0 7.5 97.0 7.85 97.0 8.25 96.85 8.6 96.85 9.0 96.75 9.35 96.5 9.75 96.35 10.1 96.1 10.5 95.75 10.85 95.35 11.25 95.0 11.6 94.6 12.0 94.1 12.35 93.6 12.6 93.35 12.75 92.75 12.85 92.0 13.0 86.6 13.1 86.35 13.25 85.75 13.35 85.0 13.5 75.1 13.6 74.85 13.75 74.25 13.85 73.5 14.0 5.0 14.0 4.25 13.85 3.6 13.75 3.35 13.6 -1.5 13.5 -2.25 13.35 -3.25 13.1 -4.25 12.85 -5.15 12.6 -5.9 12.25 -6.25 11.85 -6.65 11.5 -6.9 11.1 -7.15 10.75 -7.25 10.35 -7.4 10.0 -7.5 9.6 -7.5 9.25 -7.5 8.85 -7.5 8.5 -7.5 8.1 -7.5 7.75 -7.5 7.35 -7.4 7.0 -7.25 6.6 -7.15 6.25 -6.9 5.85 -6.75 5.5 -6.9 5.1 -7.15 4.75 -7.25 4.35 -7.4 4.0 -7.5 3.6 -7.5 3.25 -7.5 2.85 -7.5 2.5 -7.5 2.1 -7.5 1.75 -7.5 1.35 -7.4 1.0 -7.25 0.6 -7.15 0.25 -6.9 -0.15 -6.75 -0.5 -6.65 -0.9 -6.4 -1.25 -6.0 -1.65 -5.65 -2.0 -5.15 -2.4 -4.65 -2.65 -4.4 -2.75 -3.75 -2.9 -3.0 -2.9 -3.0 -3.0 12.5 -3.0 13.25 -2.9" fill="#000000" fill-rule="evenodd" stroke="none"/>
  </g>
</svg>
