<?xml version="1.0" encoding="UTF-8" standalone="no"?>
<svg xmlns:xlink="http://www.w3.org/1999/xlink" height="28.0px" width="277.0px" xmlns="http://www.w3.org/2000/svg">
  <g transform="matrix(1.0, 0.0, 0.0, 1.0, 0.0, 12.0)">
    <path d="M6.5 -2.75 L8.0 -2.75 8.0 -3.0 9.5 -2.75 11.25 -2.25 12.2 -1.7 12.5 -1.75 14.0 -1.75 14.0 -2.0 15.5 -1.75 16.8 -1.4 17.5 -1.5 20.5 -1.5 22.0 -1.25 23.25 -1.0 23.75 -0.75 84.25 -0.75 84.75 -1.0 86.0 -1.25 87.5 -1.5 112.25 -1.75 112.75 -2.0 114.0 -2.25 115.5 -2.5 145.25 -2.75 145.75 -3.0 147.0 -3.25 148.5 -3.5 157.25 -3.75 157.75 -4.0 159.0 -4.25 160.5 -4.5 170.25 -4.75 170.75 -5.0 172.0 -5.25 173.5 -5.5 187.25 -5.75 187.75 -6.0 189.0 -6.25 190.5 -6.5 201.25 -6.75 201.75 -7.0 203.0 -7.25 204.5 -7.5 209.25 -7.75 209.75 -8.0 211.0 -8.25 212.5 -8.5 220.5 -8.5 220.5 -8.25 222.0 -8.25 223.25 -8.0 223.6 -7.85 224.0 -8.25 225.25 -9.0 226.25 -9.5 227.5 -9.75 227.8 -9.75 228.25 -10.0 229.25 -10.5 230.5 -10.75 232.0 -10.75 232.0 -11.0 233.5 -10.75 235.25 -10.25 235.5 -10.1 236.25 -10.5 237.5 -10.75 239.0 -10.75 239.0 -11.0 240.5 -10.75 241.95 -10.35 242.25 -10.5 243.5 -10.75 243.8 -10.75 244.25 -11.0 245.25 -11.5 246.5 -11.75 248.0 -11.75 248.0 -12.0 249.5 -11.75 250.95 -11.35 251.25 -11.5 252.5 -11.75 254.0 -11.75 254.0 -12.0 255.5 -11.75 257.25 -11.25 257.5 -11.1 258.25 -11.5 259.5 -11.75 261.0 -11.75 261.0 -12.0 262.5 -11.75 264.25 -11.25 265.5 -10.5 265.8 -10.25 266.25 -10.5 267.5 -10.75 269.0 -10.75 269.0 -11.0 270.5 -10.75 272.25 -10.25 273.5 -9.5 274.5 -8.75 275.25 -8.0 275.75 -7.25 276.0 -6.5 276.5 -5.75 276.75 -5.0 276.75 -4.25 277.0 -3.5 277.0 -2.75 277.0 -2.0 276.75 -1.25 276.5 -0.5 276.25 0.25 275.75 1.0 275.25 1.75 274.75 2.5 274.0 3.25 272.75 4.0 271.75 4.5 270.5 4.75 269.0 5.0 267.5 4.75 265.75 4.25 264.25 3.5 264.1 3.35 263.75 3.5 262.5 3.75 262.05 3.85 261.75 4.0 260.75 4.5 259.5 4.75 258.0 5.0 256.5 4.75 254.75 4.25 254.2 3.95 254.0 4.0 252.5 3.75 251.1 3.35 250.75 3.5 249.5 3.75 249.05 3.85 248.75 4.0 247.75 4.5 246.5 4.75 245.0 5.0 243.5 4.75 243.25 4.7 242.75 5.0 241.75 5.5 240.5 5.75 239.0 6.0 237.5 5.75 235.75 5.25 234.4 4.55 233.5 4.75 233.05 4.85 232.75 5.0 231.75 5.5 230.5 5.75 229.0 6.0 227.5 5.75 225.95 5.3 225.25 6.0 223.75 6.75 222.0 7.25 220.5 7.5 214.75 7.75 214.25 8.0 213.0 8.25 211.5 8.5 206.75 8.75 206.25 9.0 205.0 9.25 203.5 9.5 192.75 9.75 192.25 10.0 191.0 10.25 189.5 10.5 174.75 10.75 174.25 11.0 173.0 11.25 171.5 11.5 163.75 11.75 163.25 12.0 162.0 12.25 160.5 12.5 150.75 12.75 150.25 13.0 149.0 13.25 147.5 13.5 117.75 13.75 117.25 14.0 116.0 14.25 114.5 14.5 90.75 14.75 90.25 15.0 89.0 15.25 87.5 15.5 20.5 15.5 19.0 15.25 17.75 15.0 17.2 14.75 16.75 15.0 15.75 15.5 14.5 15.75 13.0 16.0 11.5 15.75 9.75 15.25 8.25 14.5 7.5 13.75 6.75 13.0 6.6 12.8 6.5 12.75 4.75 12.25 3.25 11.5 2.5 10.75 1.75 10.0 1.25 9.25 0.75 8.5 0.5 7.75 0.25 7.0 0.0 6.25 0.0 5.5 0.0 4.75 0.0 4.0 0.25 3.25 0.25 2.5 0.5 1.75 1.0 1.0 1.5 0.25 2.25 -0.5 3.0 -1.25 4.25 -2.0 5.25 -2.5 6.5 -2.75" fill="#000000" fill-rule="evenodd" stroke="none"/>
  </g>
</svg>
