<?xml version="1.0" encoding="UTF-8" standalone="no"?>
<svg xmlns:xlink="http://www.w3.org/1999/xlink" height="20.0px" width="108.95px" xmlns="http://www.w3.org/2000/svg">
  <g transform="matrix(1.0, 0.0, 0.0, 1.0, -148.0, 10.0)">
    <path d="M148.25 -0.5 L148.35 -0.9 148.6 -1.25 149.0 -1.65 149.35 -2.0 149.85 -2.4 150.35 -2.65 150.6 -2.75 151.25 -2.9 152.0 -3.0 153.0 -3.0 153.75 -2.9 154.6 -2.65 155.25 -2.25 176.85 -2.15 177.1 -2.25 177.75 -2.4 178.5 -2.5 183.6 -2.75 184.35 -3.15 185.25 -3.4 186.0 -3.5 193.85 -3.65 194.1 -3.75 194.75 -3.9 195.5 -4.0 198.1 -4.25 198.85 -4.65 199.75 -4.9 200.5 -5.0 201.35 -5.15 201.6 -5.25 202.25 -5.4 203.0 -5.5 215.1 -5.75 215.85 -6.15 217.0 -6.5 217.6 -6.75 218.25 -6.9 219.0 -7.0 221.1 -7.25 221.85 -7.65 222.75 -7.9 223.5 -8.0 225.35 -8.15 225.6 -8.25 226.25 -8.4 227.0 -8.5 227.6 -8.75 228.35 -9.15 229.25 -9.4 230.0 -9.5 232.35 -9.65 232.6 -9.75 233.25 -9.9 234.0 -9.9 234.0 -10.0 245.95 -10.0 246.7 -9.9 247.6 -9.65 248.1 -9.4 248.2 -9.4 248.95 -9.5 251.95 -9.5 252.7 -9.4 253.6 -9.15 254.2 -8.75 254.7 -8.4 255.1 -8.0 255.45 -7.65 255.7 -7.25 255.95 -6.9 256.1 -6.5 256.2 -6.15 256.35 -5.75 256.45 -5.4 256.45 -5.0 256.45 -4.65 256.45 -4.25 256.45 -3.9 256.45 -3.5 256.45 -3.15 256.45 -2.75 256.45 -2.4 256.45 -2.0 256.45 -1.65 256.45 -1.25 256.45 -0.9 256.45 -0.5 256.35 -0.15 256.2 0.25 256.2 0.6 256.35 1.0 256.35 1.35 256.45 1.75 256.45 2.1 256.45 2.5 256.6 2.85 256.7 3.25 256.85 3.6 256.95 4.0 256.95 4.35 256.95 4.75 256.85 5.1 256.85 5.5 256.7 5.85 256.45 6.25 256.35 6.6 256.1 7.0 255.7 7.35 255.35 7.75 254.95 8.1 254.35 8.5 253.85 8.75 253.2 8.85 252.45 9.0 249.2 9.1 248.85 9.25 248.2 9.35 247.45 9.5 246.45 9.5 232.7 9.55 228.1 9.6 227.85 9.75 227.25 9.85 226.5 10.0 152.5 10.0 151.75 9.85 150.85 9.6 150.1 9.25 149.75 8.85 149.35 8.5 149.1 8.1 148.85 7.75 148.75 7.35 148.6 7.0 148.5 6.6 148.5 6.25 148.35 5.85 148.25 5.5 148.1 5.1 148.0 4.75 148.0 4.35 148.0 4.0 148.0 3.6 148.0 3.25 148.0 2.85 148.0 2.5 148.0 2.1 148.0 1.75 148.0 1.35 148.0 1.0 148.0 0.6 148.0 0.25 148.1 -0.15 148.25 -0.5" fill="#000000" fill-rule="evenodd" stroke="none"/>
  </g>
</svg>
