<?xml version="1.0" encoding="UTF-8" standalone="no"?>
<svg xmlns:xlink="http://www.w3.org/1999/xlink" height="63.55px" width="613.2px" xmlns="http://www.w3.org/2000/svg">
  <g transform="matrix(1.0, 0.0, 0.0, 1.0, 0.75, -336.45)">
    <path d="M-0.25 336.95 L143.0 342.0 179.15 341.65 Q217.4 341.4 228.0 342.0 245.0 343.0 299.95 343.0 L419.45 346.5 Q463.25 347.6 524.25 352.2 L600.5 357.0 611.95 357.0 611.95 400.0 0.0 400.0 -0.25 336.95" fill="#66ccff" fill-rule="evenodd" stroke="none"/>
    <path d="M-0.25 336.95 L143.0 342.0 179.15 341.65 Q217.4 341.4 228.0 342.0 245.0 343.0 299.95 343.0 L419.45 346.5 Q463.25 347.6 524.25 352.2 L600.5 357.0 611.95 357.0" fill="none" stroke="#010101" stroke-linecap="round" stroke-linejoin="round" stroke-opacity="0.0" stroke-width="1.0"/>
  </g>
</svg>
