<?xml version="1.0" encoding="UTF-8" standalone="no"?>
<svg xmlns:xlink="http://www.w3.org/1999/xlink" height="93.25px" width="611.95px" xmlns="http://www.w3.org/2000/svg">
  <g transform="matrix(1.0, 0.0, 0.0, 1.0, 0.0, -306.75)">
    <path d="M325.75 364.35 L363.3 363.1 364.6 363.05 369.65 362.95 364.6 363.05 363.3 363.1 325.75 364.35 M371.95 362.6 L371.95 362.85 372.85 362.85 372.95 362.85 373.05 362.85 Q409.25 362.15 412.8 365.5 440.65 369.25 468.85 368.3 490.25 367.55 517.95 363.65 L564.25 356.8 Q591.0 353.2 611.95 352.95 L611.95 400.0 0.0 400.0 0.0 357.0 0.05 357.0 11.45 357.0 22.7 358.1 39.6 360.6 Q65.8 364.2 89.5 363.5 109.9 362.85 149.3 364.65 L206.9 367.5 198.0 324.0 367.95 307.25 371.95 362.6 M213.95 367.8 L207.0 370.0 206.9 367.5 207.0 370.0 213.95 367.8 223.25 368.05 230.7 367.25 213.95 367.8 M325.05 364.4 L291.4 365.5 247.65 366.7 232.05 367.2 230.7 367.25 232.05 367.2 247.65 366.7 291.4 365.5 325.05 364.4 M371.95 362.85 L371.95 363.85 371.95 365.0 369.65 362.95 371.95 362.85 369.65 362.95 371.95 365.0 371.95 363.85 371.95 362.85" fill="#66ccff" fill-rule="evenodd" stroke="none"/>
    <path d="M369.65 362.95 L364.6 363.05 363.3 363.1 325.75 364.35 M371.95 362.6 L371.95 362.85 372.85 362.85 371.95 362.6 367.95 307.25 198.0 324.0 206.9 367.5 207.0 370.0 213.95 367.8 230.7 367.25 232.05 367.2 247.65 366.7 291.4 365.5 325.05 364.4 M371.95 362.85 L369.65 362.95 371.95 365.0 371.95 363.85 371.95 362.85 M372.95 362.85 L371.95 362.6" fill="none" stroke="#010101" stroke-linecap="round" stroke-linejoin="round" stroke-opacity="0.0" stroke-width="1.0"/>
  </g>
</svg>
