<?xml version="1.0" encoding="UTF-8" standalone="no"?>
<svg xmlns:xlink="http://www.w3.org/1999/xlink" height="247.15px" width="611.95px" xmlns="http://www.w3.org/2000/svg">
  <g transform="matrix(1.0, 0.0, 0.0, 1.0, 0.0, -152.85)">
    <path d="M491.05 171.9 L416.25 166.8 415.35 152.85 490.15 156.95 491.05 171.9 M364.2 361.5 L365.7 360.75 367.45 360.25 369.45 359.75 371.45 359.25 372.95 359.0 375.2 358.5 376.7 357.75 378.45 357.25 379.95 357.0 397.7 356.75 398.2 356.5 399.45 356.25 400.95 356.25 400.95 356.0 431.95 356.0 433.45 356.25 434.7 356.5 435.2 356.75 436.95 357.0 438.45 357.25 439.7 357.5 440.2 357.75 461.35 357.95 462.7 357.75 463.2 357.5 464.45 357.25 465.95 357.0 478.2 356.5 479.7 355.75 481.45 355.25 482.95 355.0 553.65 354.8 594.2 353.0 594.7 352.75 596.45 352.25 597.95 352.25 597.95 352.0 600.95 352.0 602.45 352.25 604.2 352.75 604.5 352.95 611.95 352.95 611.95 400.0 0.0 400.0 0.0 357.0 0.05 357.0 11.45 357.0 Q32.65 359.4 57.15 359.25 L97.2 358.0 Q119.7 357.2 133.35 358.25 152.15 359.7 167.5 365.0 177.65 368.8 192.6 371.85 L232.75 372.0 233.75 371.25 234.75 370.75 235.25 370.5 236.5 370.25 238.0 370.0 239.75 369.75 240.25 369.5 241.5 369.25 243.0 369.0 245.25 368.5 246.75 367.75 248.5 367.25 250.0 367.0 252.0 366.5 253.0 365.75 254.25 365.0 255.25 364.5 256.5 364.25 258.0 364.0 280.75 363.75 281.25 363.5 282.5 363.25 284.0 363.0 304.0 362.95 309.35 362.9 314.75 362.75 315.25 362.5 316.5 362.25 318.0 362.0 343.95 361.75 345.15 361.7 364.2 361.5" fill="#66ccff" fill-rule="evenodd" stroke="none"/>
  </g>
</svg>
