<?xml version="1.0" encoding="UTF-8" standalone="no"?>
<svg xmlns:xlink="http://www.w3.org/1999/xlink" height="113.8px" width="187.0px" xmlns="http://www.w3.org/2000/svg">
  <g transform="matrix(1.0, 0.0, 0.0, 1.0, 0.5, 0.5)">
    <path d="M93.0 93.05 Q54.5 93.05 27.25 79.4 0.0 65.8 0.0 46.5 0.0 27.25 27.25 13.6 54.5 0.0 93.0 0.0 131.5 0.0 158.75 13.6 186.0 27.25 186.0 46.5 186.0 65.8 158.75 79.4 142.5 87.55 125.3 90.85 L131.7 101.45 136.15 104.45 146.05 112.8 122.55 105.3 108.8 92.8 93.0 93.05" fill="#ffffff" fill-rule="evenodd" stroke="none"/>
    <path d="M93.0 93.05 Q54.5 93.05 27.25 79.4 0.0 65.8 0.0 46.5 0.0 27.25 27.25 13.6 54.5 0.0 93.0 0.0 131.5 0.0 158.75 13.6 186.0 27.25 186.0 46.5 186.0 65.8 158.75 79.4 142.5 87.55 125.3 90.85 L131.7 101.45 136.15 104.45 146.05 112.8 122.55 105.3 108.8 92.8 93.0 93.05 Z" fill="none" stroke="#000000" stroke-linecap="round" stroke-linejoin="round" stroke-width="1.0"/>
  </g>
</svg>
