<?xml version="1.0" encoding="UTF-8" standalone="no"?>
<svg xmlns:xlink="http://www.w3.org/1999/xlink" height="315.9px" width="629.1px" xmlns="http://www.w3.org/2000/svg">
  <g transform="matrix(1.0, 0.0, 0.0, 1.0, 0.0, 0.0)">
    <path d="M260.65 62.25 Q261.95 61.45 262.9 61.25 359.15 79.45 456.8 83.2 493.0 84.6 528.4 91.5 567.05 99.05 597.85 119.05 576.6 124.5 549.6 110.4 530.2 100.3 507.85 99.7 380.65 96.55 259.7 65.7 256.35 64.85 260.65 62.25 M192.0 113.5 Q139.5 89.25 87.3 68.3 165.0 111.45 249.9 142.75 262.7 147.5 274.8 155.05 372.45 216.3 469.15 271.5 453.0 281.35 431.7 263.0 424.2 256.55 415.0 251.7 359.65 222.5 306.4 187.9 228.5 137.25 140.4 109.25 100.7 96.6 77.0 65.65 76.2 64.6 77.0 64.15 53.75 54.6 32.5 43.4 68.7 71.75 107.8 98.7 171.25 142.4 232.7 188.3 281.25 224.5 319.85 266.5 321.8 268.6 317.35 269.1 301.0 271.0 285.75 259.45 187.5 185.1 89.45 109.25 57.15 84.25 21.75 63.15 -8.7 45.05 4.7 27.45 L1.6 25.5 Q-1.85 23.3 2.1 19.45 5.3 16.35 9.2 16.25 L20.85 20.15 Q21.05 19.1 21.95 17.65 25.15 12.7 30.45 12.5 152.45 35.45 269.5 80.45 291.35 88.85 314.85 92.4 327.25 94.25 339.65 93.65 443.35 88.6 537.3 120.35 541.7 121.8 537.6 125.4 524.65 136.6 504.8 131.85 419.1 111.45 329.45 111.55 316.85 111.55 304.15 109.0 215.7 91.5 130.9 60.55 L108.5 52.45 Q173.9 78.7 236.75 110.45 309.05 147.0 388.25 164.7 429.0 173.8 455.4 199.4 457.85 201.8 453.45 203.15 440.25 207.2 425.2 202.45 332.65 173.4 242.7 135.8 217.0 125.05 192.0 113.5 M178.0 37.5 Q105.15 19.7 31.8 12.35 28.3 12.0 30.1 7.1 32.55 0.4 39.2 0.0 147.65 1.75 250.75 34.8 264.8 39.3 279.6 41.85 403.25 63.0 529.0 67.15 554.05 68.0 536.7 81.7 531.4 85.9 524.0 85.35 433.8 79.1 343.85 68.9 280.55 61.75 219.0 47.35 L178.0 37.5 M202.95 141.2 Q292.5 190.95 370.8 259.7 409.7 293.85 456.3 315.85 421.0 316.95 389.8 289.1 309.5 217.25 218.45 161.9 206.9 154.9 197.95 146.85 197.95 145.9 198.1 145.0 198.4 143.25 199.9 142.3 201.55 141.3 202.95 141.2 M326.65 128.7 Q392.4 147.85 460.7 159.65 479.8 162.95 497.45 170.85 564.45 200.95 629.1 221.5 600.45 231.85 570.25 215.1 475.25 162.4 367.8 150.15 341.85 147.2 321.65 134.35 321.45 132.85 322.15 131.65 322.75 130.6 323.75 130.05 325.1 129.35 326.6 128.9 L326.65 128.7" fill="#ffffff" fill-rule="evenodd" stroke="none"/>
  </g>
</svg>
