<?xml version="1.0" encoding="UTF-8" standalone="no"?>
<svg xmlns:xlink="http://www.w3.org/1999/xlink" height="11.95px" width="571.8px" xmlns="http://www.w3.org/2000/svg">
  <g transform="matrix(1.0, 0.0, 0.0, 1.0, 279.3, 0.0)">
    <path d="M267.85 0.0 L271.8 0.0 262.55 11.95 258.6 11.95 267.85 0.0 M278.2 0.0 L282.15 0.0 272.9 11.95 268.95 11.95 278.2 0.0 M288.55 0.0 L292.5 0.0 283.2 11.95 279.3 11.95 288.55 0.0 M257.55 0.0 L261.45 0.0 252.2 11.95 248.25 11.95 257.55 0.0" fill="url(#gradient0)" fill-rule="evenodd" stroke="none"/>
    <path d="M226.4 0.0 L230.35 0.0 221.1 11.95 217.15 11.95 226.4 0.0 M236.75 0.0 L240.7 0.0 231.45 11.95 227.5 11.95 236.75 0.0 M216.1 0.0 L220.0 0.0 210.75 11.95 206.8 11.95 215.15 1.2 215.2 1.15 216.1 0.0" fill="url(#gradient1)" fill-rule="evenodd" stroke="none"/>
    <path d="M247.15 0.0 L251.1 0.0 241.85 11.95 237.9 11.95 247.15 0.0" fill="url(#gradient2)" fill-rule="evenodd" stroke="none"/>
    <path d="M215.15 1.2 L214.9 1.5 216.05 0.0 216.1 0.0 215.2 1.15 215.15 1.2 M34.95 11.95 L31.0 11.95 40.25 0.0 44.2 0.0 34.95 11.95 M24.6 11.95 L20.65 11.95 29.9 0.0 33.85 0.0 24.6 11.95 M50.6 0.0 L54.55 0.0 45.25 11.95 41.35 11.95 50.6 0.0 M65.95 11.95 L62.0 11.95 71.3 0.0 75.2 0.0 65.95 11.95 M60.95 0.0 L64.85 0.0 55.6 11.95 51.7 11.95 60.95 0.0 M81.6 0.0 L85.55 0.0 76.3 11.95 72.35 11.95 81.6 0.0 M86.65 11.95 L82.7 11.95 91.95 0.0 95.9 0.0 86.65 11.95 M103.4 11.95 L112.65 0.0 116.55 0.0 107.3 11.95 103.4 11.95 M102.3 0.0 L106.25 0.0 96.95 11.95 93.05 11.95 102.3 0.0 M133.3 0.0 L137.25 0.0 128.0 11.95 124.05 11.95 133.3 0.0 M123.0 0.0 L126.9 0.0 117.65 11.95 113.7 11.95 123.0 0.0 M143.65 0.0 L147.6 0.0 138.35 11.95 134.4 11.95 143.65 0.0 M154.0 0.0 L157.95 0.0 148.65 11.95 144.75 11.95 154.0 0.0 M174.7 0.0 L178.6 0.0 169.35 11.95 165.45 11.95 174.7 0.0 M164.35 0.0 L168.25 0.0 159.0 11.95 155.1 11.95 164.35 0.0 M185.05 0.0 L188.95 0.0 179.7 11.95 175.75 11.95 185.05 0.0 M195.35 0.0 L199.3 0.0 190.05 11.95 186.1 11.95 195.35 0.0 M205.7 0.0 L209.65 0.0 200.4 11.95 196.45 11.95 205.7 0.0 M10.3 11.95 L19.6 0.0 23.5 0.0 14.25 11.95 10.3 11.95" fill="url(#gradient3)" fill-rule="evenodd" stroke="none"/>
    <path d="M13.2 0.0 L3.9 11.95 0.0 11.95 9.25 0.0 13.2 0.0 M-11.45 0.0 L-7.5 0.0 -16.75 11.95 -20.7 11.95 -11.45 0.0 M-10.35 11.95 L-1.1 0.0 2.85 0.0 -6.4 11.95 -10.35 11.95 M-31.05 11.95 L-21.75 0.0 -17.85 0.0 -27.1 11.95 -31.05 11.95" fill="url(#gradient4)" fill-rule="evenodd" stroke="none"/>
    <path d="M-28.2 0.0 L-37.45 11.95 -41.4 11.95 -32.15 0.0 -28.2 0.0" fill="url(#gradient5)" fill-rule="evenodd" stroke="none"/>
    <path d="M-52.9 0.0 L-48.95 0.0 -58.2 11.95 -62.15 11.95 -52.9 0.0 M-51.8 11.95 L-42.55 0.0 -38.6 0.0 -47.85 11.95 -51.8 11.95 M-63.2 0.0 L-59.3 0.0 -68.55 11.95 -72.5 11.95 -64.15 1.2 -64.1 1.15 -63.2 0.0" fill="url(#gradient6)" fill-rule="evenodd" stroke="none"/>
    <path d="M-64.15 1.2 L-64.4 1.5 -63.25 0.0 -63.2 0.0 -64.1 1.15 -64.15 1.2 M-266.15 0.0 L-275.4 11.95 -279.3 11.95 -270.05 0.0 -266.15 0.0 M-259.7 0.0 L-255.8 0.0 -265.05 11.95 -269.0 11.95 -259.7 0.0 M-245.45 0.0 L-254.7 11.95 -258.65 11.95 -249.4 0.0 -245.45 0.0 M-239.05 0.0 L-235.1 0.0 -244.35 11.95 -248.3 11.95 -239.05 0.0 M-224.75 0.0 L-234.05 11.95 -237.95 11.95 -228.7 0.0 -224.75 0.0 M-204.1 0.0 L-213.35 11.95 -217.3 11.95 -208.0 0.0 -204.1 0.0 M-218.35 0.0 L-214.45 0.0 -223.7 11.95 -227.6 11.95 -218.35 0.0 M-183.4 0.0 L-192.65 11.95 -196.6 11.95 -187.35 0.0 -183.4 0.0 M-197.7 0.0 L-193.75 0.0 -203.0 11.95 -206.95 11.95 -197.7 0.0 M-172.0 11.95 L-175.9 11.95 -166.65 0.0 -162.75 0.0 -172.0 11.95 M-177.0 0.0 L-173.05 0.0 -182.35 11.95 -186.25 11.95 -177.0 0.0 M-146.0 0.0 L-142.05 0.0 -151.3 11.95 -155.25 11.95 -146.0 0.0 M-156.3 0.0 L-152.4 0.0 -161.65 11.95 -165.6 11.95 -156.3 0.0 M-135.65 0.0 L-131.7 0.0 -140.95 11.95 -144.9 11.95 -135.65 0.0 M-134.55 11.95 L-125.3 0.0 -121.35 0.0 -130.65 11.95 -134.55 11.95 M-113.85 11.95 L-104.6 0.0 -100.7 0.0 -109.95 11.95 -113.85 11.95 M-111.05 0.0 L-120.3 11.95 -124.2 11.95 -114.95 0.0 -111.05 0.0 M-94.25 0.0 L-90.35 0.0 -99.6 11.95 -103.55 11.95 -94.25 0.0 M-93.2 11.95 L-83.95 0.0 -80.0 0.0 -89.25 11.95 -93.2 11.95 M-73.6 0.0 L-69.65 0.0 -78.9 11.95 -82.85 11.95 -73.6 0.0" fill="url(#gradient7)" fill-rule="evenodd" stroke="none"/>
  </g>
  <defs>
    <linearGradient gradientTransform="matrix(0.0, 0.0204, -0.0204, 0.0, 185.2, 15.95)" gradientUnits="userSpaceOnUse" id="gradient0" spreadMethod="pad" x1="-819.2" x2="819.2">
      <stop offset="0.0" stop-color="#4646ff"/>
      <stop offset="0.39215686274509803" stop-color="#46dbff"/>
    </linearGradient>
    <linearGradient gradientTransform="matrix(0.0, 0.0204, -0.0204, 0.0, 143.75, 15.95)" gradientUnits="userSpaceOnUse" id="gradient1" spreadMethod="pad" x1="-819.2" x2="819.2">
      <stop offset="0.0" stop-color="#4646ff"/>
      <stop offset="0.39215686274509803" stop-color="#46dbff"/>
    </linearGradient>
    <linearGradient gradientTransform="matrix(0.0, 0.0204, -0.0204, 0.0, 154.15, 15.95)" gradientUnits="userSpaceOnUse" id="gradient2" spreadMethod="pad" x1="-819.2" x2="819.2">
      <stop offset="0.0" stop-color="#4646ff"/>
      <stop offset="0.39215686274509803" stop-color="#46dbff"/>
    </linearGradient>
    <linearGradient gradientTransform="matrix(0.0, 0.0204, -0.0204, 0.0, 112.7, 15.95)" gradientUnits="userSpaceOnUse" id="gradient3" spreadMethod="pad" x1="-819.2" x2="819.2">
      <stop offset="0.0" stop-color="#4646ff"/>
      <stop offset="0.39215686274509803" stop-color="#46dbff"/>
    </linearGradient>
    <linearGradient gradientTransform="matrix(0.0, 0.0204, -0.0204, 0.0, -94.1, 15.95)" gradientUnits="userSpaceOnUse" id="gradient4" spreadMethod="pad" x1="-819.2" x2="819.2">
      <stop offset="0.0" stop-color="#4646ff"/>
      <stop offset="0.39215686274509803" stop-color="#46dbff"/>
    </linearGradient>
    <linearGradient gradientTransform="matrix(0.0, 0.0204, -0.0204, 0.0, -125.15, 15.95)" gradientUnits="userSpaceOnUse" id="gradient5" spreadMethod="pad" x1="-819.2" x2="819.2">
      <stop offset="0.0" stop-color="#4646ff"/>
      <stop offset="0.39215686274509803" stop-color="#46dbff"/>
    </linearGradient>
    <linearGradient gradientTransform="matrix(0.0, 0.0204, -0.0204, 0.0, -135.55, 15.95)" gradientUnits="userSpaceOnUse" id="gradient6" spreadMethod="pad" x1="-819.2" x2="819.2">
      <stop offset="0.0" stop-color="#4646ff"/>
      <stop offset="0.39215686274509803" stop-color="#46dbff"/>
    </linearGradient>
    <linearGradient gradientTransform="matrix(0.0, 0.0204, -0.0204, 0.0, -166.6, 15.95)" gradientUnits="userSpaceOnUse" id="gradient7" spreadMethod="pad" x1="-819.2" x2="819.2">
      <stop offset="0.0" stop-color="#4646ff"/>
      <stop offset="0.39215686274509803" stop-color="#46dbff"/>
    </linearGradient>
  </defs>
</svg>
