<?xml version="1.0" encoding="UTF-8" standalone="no"?>
<svg xmlns:xlink="http://www.w3.org/1999/xlink" height="9.75px" width="16.25px" xmlns="http://www.w3.org/2000/svg">
  <g transform="matrix(1.0, 0.0, 0.0, 1.0, 8.05, 4.55)">
    <path d="M1.7 -1.3 L1.7 -2.9 3.3 -2.9 3.3 -1.3 4.95 -1.3 4.95 1.95 3.3 1.95 3.3 3.6 1.7 3.6 1.7 1.95 3.3 1.95 3.3 -1.3 1.7 -1.3 M-4.8 -1.3 L-3.2 -1.3 -3.2 -2.9 -1.55 -2.9 -1.55 -1.3 -3.2 -1.3 -3.2 1.95 -4.8 1.95 -4.8 -1.3 M-1.55 3.6 L-3.2 3.6 -3.2 1.95 -1.55 1.95 -1.55 3.6" fill="#f0cc78" fill-rule="evenodd" stroke="none"/>
    <path d="M1.7 -2.9 L1.7 -1.3 -1.55 -1.3 -1.55 -2.9 1.7 -2.9 M0.05 1.95 L0.05 3.6 -1.55 3.6 -1.55 1.95 0.05 1.95" fill="#f8e498" fill-rule="evenodd" stroke="none"/>
    <path d="M3.3 -1.3 L3.3 -2.9 4.95 -2.9 4.95 -1.3 3.3 -1.3 M4.95 3.6 L3.3 3.6 3.3 1.95 4.95 1.95 4.95 3.6 M-3.2 3.6 L-4.8 3.6 -4.8 1.95 -3.2 1.95 -3.2 3.6 M-4.8 -2.9 L-3.2 -2.9 -3.2 -1.3 -4.8 -1.3 -4.8 -2.9" fill="#e08430" fill-rule="evenodd" stroke="none"/>
    <path d="M4.95 -1.3 L4.95 -2.9 6.55 -2.9 6.55 -1.3 8.2 -1.3 8.2 1.95 6.55 1.95 6.55 3.6 4.95 3.6 4.95 1.95 6.55 1.95 6.55 -1.3 4.95 -1.3 M-4.8 3.6 L-6.45 3.6 -6.45 1.95 -8.05 1.95 -8.05 -1.3 -6.45 -1.3 -6.45 -2.9 -4.8 -2.9 -4.8 -1.3 -6.45 -1.3 -6.45 1.95 -4.8 1.95 -4.8 3.6" fill="#a76223" fill-rule="evenodd" stroke="none"/>
    <path d="M3.3 -2.9 L1.7 -2.9 1.7 -4.55 3.3 -4.55 3.3 -2.9 M-1.55 -4.55 L-1.55 -2.9 -3.2 -2.9 -3.2 -4.55 -1.55 -4.55 M3.3 3.6 L3.3 5.2 1.7 5.2 1.7 3.6 3.3 3.6 M-1.55 5.2 L-3.2 5.2 -3.2 3.6 -1.55 3.6 -1.55 5.2" fill="#8c521e" fill-rule="evenodd" stroke="none"/>
    <path d="M1.7 -4.55 L1.7 -2.9 -1.55 -2.9 -1.55 -4.55 1.7 -4.55 M1.7 5.2 L-1.55 5.2 -1.55 3.6 0.05 3.6 1.7 3.6 1.7 5.2" fill="#c4732a" fill-rule="evenodd" stroke="none"/>
    <path d="M1.7 -1.3 L3.3 -1.3 3.3 1.95 1.7 1.95 0.05 1.95 -1.55 1.95 -3.2 1.95 -3.2 -1.3 -1.55 -1.3 1.7 -1.3" fill="#f8f4e0" fill-rule="evenodd" stroke="none"/>
    <path d="M4.95 -1.3 L6.55 -1.3 6.55 1.95 4.95 1.95 4.95 -1.3 M-4.8 -1.3 L-4.8 1.95 -6.45 1.95 -6.45 -1.3 -4.8 -1.3" fill="#f0ac48" fill-rule="evenodd" stroke="none"/>
    <path d="M0.05 1.95 L1.7 1.95 1.7 3.6 0.05 3.6 0.05 1.95" fill="#f8f4b8" fill-rule="evenodd" stroke="none"/>
  </g>
</svg>
